<?xml version="1.0" encoding="UTF-8" standalone="no" ?>
<!DOCTYPE svg PUBLIC "-//W3C//DTD SVG 1.1//EN" "http://www.w3.org/Graphics/SVG/1.1/DTD/svg11.dtd">
<svg xmlns="http://www.w3.org/2000/svg" xmlns:xlink="http://www.w3.org/1999/xlink" version="1.1" width="1280" height="1024" viewBox="0 0 1280 1024" xml:space="preserve">
<desc>Created with Fabric.js 5.3.0</desc>
<defs>
</defs>
<g transform="matrix(1 0 0 1 640 512)" id="background-logo"  >
<rect style="stroke: none; stroke-width: 0; stroke-dasharray: none; stroke-linecap: butt; stroke-dashoffset: 0; stroke-linejoin: miter; stroke-miterlimit: 4; fill: rgb(255,255,255); fill-opacity: 0; fill-rule: nonzero; opacity: 1;"  paint-order="stroke"  x="-640" y="-512" rx="0" ry="0" width="1280" height="1024" />
</g>
<g transform="matrix(1.9211538461538462 0 0 1.9211538461538462 640 401.6545696397762)" id="logo-logo"  >
<g style=""  paint-order="stroke"   >
		<g transform="matrix(0.8009450098341586 0 0 -0.8009450098341586 -98.48203585768158 -51.15996203065197)"  >
<path style="stroke: none; stroke-width: 1; stroke-dasharray: none; stroke-linecap: butt; stroke-dashoffset: 0; stroke-linejoin: miter; stroke-miterlimit: 4; fill: rgb(87,137,229); fill-rule: nonzero; opacity: 1;"  paint-order="stroke"  transform=" translate(0.0024999999999995026, -12.384)" d="M 0 0 C 6.834 0.001 12.377 5.545 12.377 12.382 C 12.377 19.224 6.834 24.767 0 24.768 C -6.84 24.767 -12.382 19.224 -12.382 12.382 C -12.382 5.545 -6.84 0.001 0 0" stroke-linecap="round" />
</g>
		<g transform="matrix(0.8009450098341586 0 0 -0.8009450098341586 -65.01823296880644 -51.15996203065197)"  >
<path style="stroke: none; stroke-width: 1; stroke-dasharray: none; stroke-linecap: butt; stroke-dashoffset: 0; stroke-linejoin: miter; stroke-miterlimit: 4; fill: rgb(87,137,229); fill-rule: nonzero; opacity: 1;"  paint-order="stroke"  transform=" translate(-15.085499999999998, -12.384)" d="M 0 0 L 30.173 0 C 34.658 0 38.297 5.544 38.297 12.382 C 38.297 19.224 34.657999999999994 24.768 30.172999999999995 24.768 L 0 24.768 C -4.486 24.768 -8.126 19.224 -8.126 12.382000000000001 C -8.126 5.544 -4.486 0 0 0" stroke-linecap="round" />
</g>
		<g transform="matrix(0.8009450098341586 0 0 -0.8009450098341586 -106.85952018804193 3.012113898483335)"  >
<path style="stroke: none; stroke-width: 1; stroke-dasharray: none; stroke-linecap: butt; stroke-dashoffset: 0; stroke-linejoin: miter; stroke-miterlimit: 4; fill: rgb(87,137,229); fill-rule: nonzero; opacity: 1;"  paint-order="stroke"  transform=" translate(0.0030000000000001137, 12.3845)" d="M 0 0 C -6.84 -0.001 -12.382 -5.545 -12.382 -12.386 C -12.382 -19.224 -6.84 -24.768 0 -24.769 C 6.834 -24.767999999999997 12.376 -19.223999999999997 12.376 -12.386 C 12.376 -5.545 6.834 -0.001 0 0" stroke-linecap="round" />
</g>
		<g transform="matrix(0.8009450098341586 0 0 -0.8009450098341586 -73.39531682666194 3.0118736149803738)"  >
<path style="stroke: none; stroke-width: 1; stroke-dasharray: none; stroke-linecap: butt; stroke-dashoffset: 0; stroke-linejoin: miter; stroke-miterlimit: 4; fill: rgb(87,137,229); fill-rule: nonzero; opacity: 1;"  paint-order="stroke"  transform=" translate(-23.2115, -0.0015000000000000568)" d="M 0 0 C 0 -6.838 3.64 -12.383 8.126 -12.383 L 38.299 -12.383 C 42.784 -12.383 46.423 -6.837999999999999 46.423 0 C 46.423 6.841 42.784 12.386 38.299 12.386 L 8.126 12.386 C 3.64 12.386 0 6.841 0 0" stroke-linecap="round" />
</g>
		<g transform="matrix(0.8009450098341586 0 0 -0.8009450098341586 -86.19561950132652 53.83295581197149)"  >
<path style="stroke: none; stroke-width: 1; stroke-dasharray: none; stroke-linecap: butt; stroke-dashoffset: 0; stroke-linejoin: miter; stroke-miterlimit: 4; fill: rgb(87,137,229); fill-rule: nonzero; opacity: 1;"  paint-order="stroke"  transform=" translate(0.0024999999999995026, 12.3835)" d="M 0 0 C -6.84 0 -12.382 -5.545 -12.382 -12.385 C -12.382 -19.223 -6.84 -24.767 0 -24.767 C 6.834 -24.767 12.377 -19.223 12.377 -12.385 C 12.377 -5.545 6.834 0 0 0" stroke-linecap="round" />
</g>
		<g transform="matrix(0.8009450098341586 0 0 -0.8009450098341586 -52.731576328948506 53.83295581197149)"  >
<path style="stroke: none; stroke-width: 1; stroke-dasharray: none; stroke-linecap: butt; stroke-dashoffset: 0; stroke-linejoin: miter; stroke-miterlimit: 4; fill: rgb(87,137,229); fill-rule: nonzero; opacity: 1;"  paint-order="stroke"  transform=" translate(15.087499999999999, 12.3835)" d="M 0 0 L -30.173 0 C -34.659 0 -38.299 -5.545 -38.299 -12.385 C -38.299 -19.225 -34.659 -24.767 -30.173000000000002 -24.767 L 0 -24.767 C 4.485 -24.767 8.124 -19.225 8.124 -12.385 C 8.124 -5.545 4.485 0 0 0" stroke-linecap="round" />
</g>
		<g transform="matrix(0.8009450098341586 0 0 -0.8009450098341586 32.07648603734128 0)"  >
<path style="stroke: none; stroke-width: 1; stroke-dasharray: none; stroke-linecap: butt; stroke-dashoffset: 0; stroke-linejoin: miter; stroke-miterlimit: 4; fill: rgb(87,137,229); fill-rule: nonzero; opacity: 1;"  paint-order="stroke"  transform=" translate(78.68250000000003, -17.258000000000024)" d="M 0 0 C -7.462 0 -13.51 6.049 -13.51 13.51 C -13.51 20.971 -7.462 27.02 0 27.02 C 7.462 27.02 13.51 20.971 13.51 13.51 C 13.51 6.049 7.462 0 0 0 M -26.147 -61.533 C -33.608999999999995 -61.533 -39.657 -55.484 -39.657 -48.023 C -39.657 -40.56400000000001 -33.608999999999995 -34.515 -26.147 -34.515 C -18.686 -34.515 -12.637999999999998 -40.564 -12.637999999999998 -48.022999999999996 C -12.637999999999998 -55.483999999999995 -18.686 -61.532999999999994 -26.147 -61.532999999999994 M -92.801 0.643 C -98.399 0.643 -102.926 6.42 -102.926 13.558 C -102.926 20.667 -98.399 26.444 -92.801 26.444 L -36.058 26.444 C -33.269 26.444 -30.727 24.997999999999998 -28.892 22.676 C -27.04 20.325 -25.91 17.104999999999997 -25.91 13.557999999999998 C -25.91 6.419999999999998 -30.459 0.6429999999999989 -36.058 0.6429999999999989 z M -52.992000000000004 90.471 C -45.531000000000006 90.471 -39.482000000000006 84.422 -39.482000000000006 76.961 C -39.482000000000006 69.5 -45.531000000000006 63.452 -52.992000000000004 63.452 C -60.45400000000001 63.452 -66.50200000000001 69.5 -66.50200000000001 76.961 C -66.50200000000001 84.422 -60.45400000000001 90.471 -52.99200000000001 90.471 M -80.537 131.39600000000002 C -82.772 131.525 -85.02000000000001 131.61 -87.287 131.61 C -89.554 131.61 -91.801 131.525 -94.036 131.39600000000002 L -100.349 131.39600000000002 C -113.863 131.39600000000002 -126.46000000000001 127.28500000000001 -137.094 120.21500000000002 C -141.25 117.45200000000001 -145.11599999999999 114.25000000000001 -148.607 110.64400000000002 C -156 102.98600000000002 -150.61599999999999 89.73700000000002 -140.24 89.73700000000002 L -92.971 89.73700000000002 C -90.166 89.73700000000002 -87.644 88.29100000000003 -85.809 85.94700000000002 C -83.975 83.62500000000001 -82.846 80.39100000000002 -82.846 76.82900000000002 C -82.846 69.70600000000002 -87.37700000000001 63.93600000000002 -92.971 63.93600000000002 L -168.935 63.93600000000002 C -168.931 63.96900000000002 -168.927 64.00000000000001 -168.937 63.93600000000002 C -172.96800000000002 63.47200000000002 -176.638 61.14300000000002 -179.366 58.279000000000025 C -182.5 54.98800000000003 -184.43 50.45800000000003 -184.43 45.450000000000024 C -184.43 36.12500000000003 -177.725 27.470000000000024 -169.09 26.444000000000024 L -135.598 26.444000000000024 C -132.80700000000002 26.444000000000024 -130.26700000000002 24.998000000000022 -128.43300000000002 22.676000000000023 C -126.59800000000003 20.325000000000024 -125.46900000000002 17.105000000000025 -125.46900000000002 13.558000000000023 C -125.46900000000002 6.420000000000023 -130.00000000000003 0.6430000000000238 -135.598 0.6430000000000238 L -169.03000000000003 0.6430000000000238 C -169.03600000000003 0.7140000000000237 -169.04300000000003 0.7930000000000238 -169.03300000000002 0.6430000000000238 C -172.68 0.12200000000002376 -175.911 -2.462999999999976 -178.39300000000003 -5.069999999999976 C -181.37500000000003 -8.196999999999976 -183.22700000000003 -12.507999999999976 -183.22700000000003 -17.279999999999976 C -183.22700000000003 -26.847999999999978 -174.61000000000004 -34.86299999999997 -165.51400000000004 -34.86299999999997 L -165.07600000000005 -34.98099999999997 L -114.88800000000005 -34.98099999999997 C -112.09900000000005 -34.98099999999997 -109.55600000000005 -36.427999999999976 -107.72200000000005 -38.74999999999997 C -105.88700000000006 -41.09399999999997 -104.76100000000005 -44.327999999999975 -104.76100000000005 -47.89099999999997 C -104.76100000000005 -55.01399999999997 -109.28900000000006 -60.78299999999997 -114.88800000000005 -60.78299999999997 L -142.59000000000006 -60.78299999999997 C -150.27000000000007 -60.78299999999997 -155.37000000000006 -69.10399999999997 -152.20100000000005 -76.46299999999997 C -152.11500000000004 -76.66399999999996 -152.02000000000004 -76.85799999999996 -151.93300000000005 -77.05899999999997 C -133.54100000000005 -89.68799999999997 -111.28200000000004 -97.09399999999997 -87.28700000000005 -97.09399999999997 C -24.132000000000048 -97.09399999999997 27.064999999999955 -45.895999999999965 27.064999999999955 17.258000000000038 C 27.064999999999955 78.14500000000004 -20.527000000000044 127.90000000000003 -80.53700000000005 131.39600000000004" stroke-linecap="round" />
</g>
</g>
</g>
<g transform="matrix(1.9211538461538462 0 0 1.9211538461538462 639.9586951923078 678.5452440394608)" id="text-logo"  >
<g style=""  paint-order="stroke"   >
		<g transform="matrix(1 0 0 1 0 0)" id="text-logo-path-0"  >
<path style="stroke: none; stroke-width: 0; stroke-dasharray: none; stroke-linecap: butt; stroke-dashoffset: 0; stroke-linejoin: miter; stroke-miterlimit: 4; fill: rgb(87,137,229); fill-rule: nonzero; opacity: 1;"  paint-order="stroke"  transform=" translate(-192.72500000000002, 15.05)" d="M 14.02 -6.02 L 9.46 -6.02 L 9.46 -24.08 L 14.02 -24.08 C 18.32 -24.08 20.86 -23.01 22.1 -20.43 C 22.7 -19.09 23.01 -17.33 23.01 -15.09 C 23.01 -10.75 21.93 -8.17 19.35 -6.97 C 18.02 -6.32 16.25 -6.02 14.02 -6.02 Z M 2.15 -30.1 L 2.15 0 L 15.31 0 C 22.4 0 26.66 -1.89 28.77 -6.28 C 29.8 -8.47 30.32 -11.4 30.32 -15.09 C 30.32 -22.27 28.47 -26.49 24.12 -28.55 C 21.93 -29.58 19.01 -30.1 15.31 -30.1 Z M 43.22 0 L 50.53 0 L 50.53 -30.1 L 43.22 -30.1 Z M 78.95 0.43 C 88.54 0.43 93.44 -3.01 93.65 -9.85 L 93.65 -15.87 L 79.85 -15.87 L 79.85 -9.85 L 86.3 -9.85 C 86 -7.05 82.73 -5.59 78.95 -5.59 C 73.4 -5.59 70.74 -8.43 70.74 -15.09 C 70.74 -21.5 73.23 -24.51 78.95 -24.51 C 83.12 -24.51 86.39 -23.22 86.39 -19.78 L 93.7 -19.78 C 93.18 -26.96 87.55 -30.53 78.95 -30.53 C 68.46 -30.53 63.43 -25.8 63.43 -15.09 C 63.43 -4.6 68.16 0.43 78.95 0.43 Z M 106.6 0 L 113.91 0 L 113.91 -30.1 L 106.6 -30.1 Z M 142.33 0.43 C 152.13 0.43 157.04 -3.14 157.04 -10.28 L 149.73 -10.28 C 149.73 -7.18 146.29 -5.59 142.33 -5.59 C 136.78 -5.59 134.12 -8.43 134.12 -15.09 C 134.12 -21.5 136.61 -24.51 142.33 -24.51 C 146.5 -24.51 149.77 -23.22 149.77 -19.78 L 157.08 -19.78 C 156.56 -26.96 150.93 -30.53 142.33 -30.53 C 131.84 -30.53 126.81 -25.8 126.81 -15.09 C 126.81 -4.6 131.54 0.43 142.33 0.43 Z M 191.48 0 L 198.79 0 L 198.79 -30.1 L 191.48 -30.1 L 191.48 -18.06 L 177.29 -18.06 L 177.29 -30.1 L 169.98 -30.1 L 169.98 0 L 177.29 0 L 177.29 -12.04 L 191.48 -12.04 Z M 211.69 0 L 219 0 L 219 -30.1 L 211.69 -30.1 Z M 231.9 0 L 239.21 0 L 239.21 -10.79 L 240.84 -12.38 L 251.68 0 L 260.71 0 L 245.7 -17.11 L 258.99 -30.1 L 249.96 -30.1 L 239.21 -19.61 L 239.21 -30.1 L 231.9 -30.1 Z M 283.07 0 L 290.38 0 L 290.38 -24.08 L 299.84 -24.08 L 299.84 -30.1 L 273.61 -30.1 L 273.61 -24.08 L 283.07 -24.08 Z M 326.28 0.43 C 333.47 0.43 337.21 -1.12 338.75 -3.91 C 339.49 -5.33 339.87 -7.14 339.87 -9.37 C 339.87 -15.22 337.16 -18.06 329.55 -18.06 L 326.28 -18.06 C 323.27 -18.06 321.55 -18.06 320.69 -18.92 C 320.31 -19.31 320.09 -20 320.09 -20.94 C 320.09 -22.88 320.61 -23.78 322.37 -24.21 C 323.23 -24.42 324.56 -24.51 326.33 -24.51 C 328.86 -24.51 330.15 -24.3 331.01 -22.96 C 331.44 -22.32 331.66 -21.29 331.66 -19.95 L 339.01 -19.95 C 339.01 -27.86 334.71 -30.53 326.33 -30.53 C 319.15 -30.53 315.41 -28.98 313.9 -26.19 C 313.13 -24.77 312.74 -22.96 312.74 -20.73 C 312.74 -14.88 315.45 -12.04 323.06 -12.04 L 326.28 -12.04 C 329.17 -12.04 331.01 -11.87 331.92 -11.01 C 332.3 -10.58 332.52 -9.98 332.52 -9.16 C 332.52 -7.22 332 -6.36 330.28 -5.93 C 329.38 -5.72 328.05 -5.59 326.28 -5.59 C 323.19 -5.59 321.64 -5.85 320.78 -7.14 C 320.31 -7.78 320.09 -8.77 320.09 -10.15 L 312.74 -10.15 C 312.74 -4.69 314.85 -1.76 318.8 -0.52 C 320.74 0.13 323.23 0.43 326.28 0.43 Z M 375.99 0 L 383.3 0 L 371.91 -30.1 L 364.17 -30.1 L 352.77 0 L 360.08 0 L 362.19 -5.59 L 373.89 -5.59 Z M 371.61 -11.61 L 364.47 -11.61 L 368.04 -21.03 Z" stroke-linecap="round" />
</g>
</g>
</g>
<g transform="matrix(1.9211538461538462 0 0 1.9211538461538462 640.8071097506006 767.416347677682)" id="tagline-2091dfb2-845b-4d80-a4bf-aac084cacf70-logo"  >
<g style=""  paint-order="stroke"   >
		<g transform="matrix(1 0 0 1 0 0)" id="tagline-2091dfb2-845b-4d80-a4bf-aac084cacf70-logo-path-0"  >
<path style="stroke: none; stroke-width: 0; stroke-dasharray: none; stroke-linecap: butt; stroke-dashoffset: 0; stroke-linejoin: miter; stroke-miterlimit: 4; fill: rgb(87,137,229); fill-rule: nonzero; opacity: 1;"  paint-order="stroke"  transform=" translate(-315.02, 5.8100000000000005)" d="M 5.61 -4.88 L 0.24 -13.96 L 3.03 -13.96 L 6.95 -7.24 L 10.64 -13.96 L 13.33 -13.96 L 8.19 -4.88 L 8.19 0 L 5.61 0 L 5.61 -4.88 Z M 24.76 -7.02 L 24.76 -7.02 Q 24.76 -2.15 29.08 -2.15 L 29.08 -2.15 Q 33.3 -2.15 33.3 -7.02 L 33.3 -7.02 Q 33.3 -11.82 29.08 -11.82 L 29.08 -11.82 Q 24.76 -11.82 24.76 -7.02 Z M 22.07 -6.96 L 22.07 -6.96 Q 22.07 -14.06 29.08 -14.06 L 29.08 -14.06 Q 35.99 -14.06 35.99 -6.96 L 35.99 -6.96 Q 35.99 0.1 29.08 0.1 L 29.08 0.1 Q 22.38 0.1 22.07 -6.96 Z M 46.83 -5.49 L 46.83 -5.49 L 46.83 -13.96 L 49.42 -13.96 L 49.42 -5.49 Q 49.42 -2.15 52.84 -2.15 L 52.84 -2.15 Q 56.25 -2.15 56.25 -5.49 L 56.25 -5.49 L 56.25 -13.96 L 58.84 -13.96 L 58.84 -5.49 Q 58.84 0.1 52.84 0.1 L 52.84 0.1 Q 46.83 0.1 46.83 -5.49 Z M 72.81 -0.02 L 70.17 -0.02 L 70.17 -13.96 L 76.52 -13.96 Q 80.8 -13.96 80.8 -10.22 L 80.8 -10.22 Q 80.8 -7.7 77.47 -6.04 L 77.47 -6.04 L 81.89 0 L 78.63 0 L 74.38 -6.08 L 74.38 -7.27 Q 78.09 -7.9 78.09 -10.15 L 78.09 -10.15 Q 78.09 -11.69 76.35 -11.69 L 76.35 -11.69 L 72.81 -11.69 L 72.81 -0.02 Z M 106.89 0 L 104.3 0 L 104.3 -13.96 L 106.89 -13.96 L 106.89 -8.2 L 113.78 -8.2 L 113.78 -13.96 L 116.37 -13.96 L 116.37 0 L 113.78 0 L 113.78 -5.96 L 106.89 -5.96 L 106.89 0 Z M 127.69 -13.96 L 137.26 -13.96 L 137.26 -11.74 L 130.26 -11.74 L 130.26 -8.22 L 136.92 -8.22 L 136.92 -5.91 L 130.23 -5.91 L 130.23 -2.25 L 137.39 -2.25 L 137.39 0 L 127.69 0 L 127.69 -13.96 Z M 154.22 -11.3 L 149.62 0 L 146.96 0 L 152.89 -13.96 L 155.68 -13.96 L 161.73 0 L 158.95 0 L 157.35 -3.81 L 152.72 -3.81 L 153.6 -6.05 L 156.42 -6.05 L 154.22 -11.3 Z M 171.84 -13.96 L 174.43 -13.96 L 174.43 -2.25 L 179.97 -2.25 L 179.97 0 L 171.84 0 L 171.84 -13.96 Z M 186.42 -13.96 L 197.02 -13.96 L 197.02 -11.72 L 193.01 -11.72 L 193.01 0 L 190.42 0 L 190.42 -11.72 L 186.42 -11.72 L 186.42 -13.96 Z M 209.47 0 L 206.88 0 L 206.88 -13.96 L 209.47 -13.96 L 209.47 -8.2 L 216.35 -8.2 L 216.35 -13.96 L 218.94 -13.96 L 218.94 0 L 216.35 0 L 216.35 -5.96 L 209.47 -5.96 L 209.47 0 Z M 230.52 -1.81 L 233.1 -1.81 L 231.64 2.44 L 229.05 2.44 L 230.52 -1.81 Z M 258.2 -7.02 L 258.2 -7.02 Q 258.2 -2.15 262.53 -2.15 L 262.53 -2.15 Q 266.75 -2.15 266.75 -7.02 L 266.75 -7.02 Q 266.75 -11.82 262.53 -11.82 L 262.53 -11.82 Q 258.2 -11.82 258.2 -7.02 Z M 255.52 -6.96 L 255.52 -6.96 Q 255.52 -14.06 262.53 -14.06 L 262.53 -14.06 Q 269.43 -14.06 269.43 -6.96 L 269.43 -6.96 Q 269.43 0.1 262.53 0.1 L 262.53 0.1 Q 255.83 0.1 255.52 -6.96 Z M 280.28 -5.49 L 280.28 -5.49 L 280.28 -13.96 L 282.86 -13.96 L 282.86 -5.49 Q 282.86 -2.15 286.28 -2.15 L 286.28 -2.15 Q 289.7 -2.15 289.7 -5.49 L 289.7 -5.49 L 289.7 -13.96 L 292.29 -13.96 L 292.29 -5.49 Q 292.29 0.1 286.28 0.1 L 286.28 0.1 Q 280.28 0.1 280.28 -5.49 Z M 306.25 -0.02 L 303.62 -0.02 L 303.62 -13.96 L 309.96 -13.96 Q 314.24 -13.96 314.24 -10.22 L 314.24 -10.22 Q 314.24 -7.7 310.91 -6.04 L 310.91 -6.04 L 315.34 0 L 312.07 0 L 307.83 -6.08 L 307.83 -7.27 Q 311.54 -7.9 311.54 -10.15 L 311.54 -10.15 Q 311.54 -11.69 309.8 -11.69 L 309.8 -11.69 L 306.25 -11.69 L 306.25 -0.02 Z M 340.34 -2.25 L 343.22 -2.25 Q 347.57 -2.25 347.57 -7.36 L 347.57 -7.36 Q 347.57 -11.72 343.22 -11.72 L 343.22 -11.72 L 340.34 -11.72 L 340.34 -2.25 Z M 343.22 0 L 337.75 0 L 337.75 -13.96 L 343.22 -13.96 Q 350.15 -13.96 350.15 -7.36 L 350.15 -7.36 Q 350.15 0 343.22 0 L 343.22 0 Z M 360.75 -13.96 L 363.34 -13.96 L 363.34 0 L 360.75 0 L 360.75 -13.96 Z M 385.8 -6.45 L 385.8 -0.64 Q 384.11 0.1 381.57 0.1 L 381.57 0.1 Q 374.18 0.1 374.18 -7.18 L 374.18 -7.18 Q 374.18 -14.06 381.7 -14.06 L 381.7 -14.06 Q 383.99 -14.06 385.8 -13.38 L 385.8 -13.38 L 385.8 -11.04 Q 383.99 -11.82 381.89 -11.82 L 381.89 -11.82 Q 376.87 -11.82 376.87 -7.18 L 376.87 -7.18 Q 376.87 -2.15 381.61 -2.15 L 381.61 -2.15 Q 382.31 -2.15 383.21 -2.38 L 383.21 -2.38 L 383.21 -6.45 L 385.8 -6.45 Z M 396.64 -13.96 L 399.23 -13.96 L 399.23 0 L 396.64 0 L 396.64 -13.96 Z M 409.1 -13.96 L 419.69 -13.96 L 419.69 -11.72 L 415.69 -11.72 L 415.69 0 L 413.1 0 L 413.1 -11.72 L 409.1 -11.72 L 409.1 -13.96 Z M 434.13 -11.3 L 429.53 0 L 426.87 0 L 432.8 -13.96 L 435.58 -13.96 L 441.64 0 L 438.85 0 L 437.26 -3.81 L 432.62 -3.81 L 433.51 -6.05 L 436.32 -6.05 L 434.13 -11.3 Z M 451.74 -13.96 L 454.33 -13.96 L 454.33 -2.25 L 459.88 -2.25 L 459.88 0 L 451.74 0 L 451.74 -13.96 Z M 486.1 0 L 483.52 0 L 483.52 -13.96 L 489.77 -13.96 Q 494.04 -13.96 494.04 -10.03 L 494.04 -10.03 Q 494.04 -5.76 488.19 -4.86 L 488.19 -4.86 L 487.82 -7.17 Q 491.34 -7.8 491.34 -9.95 L 491.34 -9.95 Q 491.34 -11.69 489.6 -11.69 L 489.6 -11.69 L 486.1 -11.69 L 486.1 0 Z M 506.79 -0.02 L 504.15 -0.02 L 504.15 -13.96 L 510.5 -13.96 Q 514.78 -13.96 514.78 -10.22 L 514.78 -10.22 Q 514.78 -7.7 511.45 -6.04 L 511.45 -6.04 L 515.87 0 L 512.61 0 L 508.36 -6.08 L 508.36 -7.27 Q 512.07 -7.9 512.07 -10.15 L 512.07 -10.15 Q 512.07 -11.69 510.33 -11.69 L 510.33 -11.69 L 506.79 -11.69 L 506.79 -0.02 Z M 525.49 -13.96 L 528.08 -13.96 L 528.08 0 L 525.49 0 L 525.49 -13.96 Z M 541.61 -7.02 L 541.61 -7.02 Q 541.61 -2.15 545.93 -2.15 L 545.93 -2.15 Q 550.15 -2.15 550.15 -7.02 L 550.15 -7.02 Q 550.15 -11.82 545.93 -11.82 L 545.93 -11.82 Q 541.61 -11.82 541.61 -7.02 Z M 538.92 -6.96 L 538.92 -6.96 Q 538.92 -14.06 545.93 -14.06 L 545.93 -14.06 Q 552.84 -14.06 552.84 -6.96 L 552.84 -6.96 Q 552.84 0.1 545.93 0.1 L 545.93 0.1 Q 539.23 0.1 538.92 -6.96 Z M 566.31 -0.02 L 563.68 -0.02 L 563.68 -13.96 L 570.03 -13.96 Q 574.3 -13.96 574.3 -10.22 L 574.3 -10.22 Q 574.3 -7.7 570.97 -6.04 L 570.97 -6.04 L 575.4 0 L 572.14 0 L 567.89 -6.08 L 567.89 -7.27 Q 571.6 -7.9 571.6 -10.15 L 571.6 -10.15 Q 571.6 -11.69 569.86 -11.69 L 569.86 -11.69 L 566.31 -11.69 L 566.31 -0.02 Z M 585.02 -13.96 L 587.61 -13.96 L 587.61 0 L 585.02 0 L 585.02 -13.96 Z M 597.47 -13.96 L 608.07 -13.96 L 608.07 -11.72 L 604.06 -11.72 L 604.06 0 L 601.47 0 L 601.47 -11.72 L 597.47 -11.72 L 597.47 -13.96 Z M 622.07 -4.88 L 616.71 -13.96 L 619.49 -13.96 L 623.42 -7.24 L 627.11 -13.96 L 629.8 -13.96 L 624.66 -4.88 L 624.66 0 L 622.07 0 L 622.07 -4.88 Z" stroke-linecap="round" />
</g>
</g>
</g>
</svg>